<svg xmlns="http://www.w3.org/2000/svg" xmlns:xlink="http://www.w3.org/1999/xlink" width="169.805" height="36.455" viewBox="0 0 169.805 36.455">
  <defs>
    <clipPath id="clip-path">
      <rect id="Rectangle_164" data-name="Rectangle 164" width="169.805" height="36.455" fill="#fff"/>
    </clipPath>
  </defs>
  <g id="Group_9" data-name="Group 9" transform="translate(-125.121 -65.222)">
    <g id="Group_154" data-name="Group 154" transform="translate(125.121 65.222)">
      <g id="Group_153" data-name="Group 153" clip-path="url(#clip-path)">
        <path id="Path_11" data-name="Path 11" d="M36.451,18.126V34.091c0,.295.015.592-.009.886a1.349,1.349,0,0,1-1.376,1.439c-1.107.055-2.22.052-3.325,0a1.27,1.27,0,0,1-1.288-1.363c-.017-.332-.006-.664-.006-.992V12.991c0-.332.016-.667-.01-.992a1.549,1.549,0,0,0-1.6-1.622c-.258-.02-.517-.007-.776-.007H8.094c-1.619.02-2.036.428-2.036,2.03V34.24c0,1.851-.346,2.2-2.191,2.21-.776,0-1.554.025-2.329-.01-1.025-.058-1.449-.5-1.523-1.532C0,34.65,0,34.391,0,34.132V2.757c0-.444-.011-.889.021-1.33C.095.455.517.063,1.509.011c.185-.01.372,0,.554,0L34.333,0c.222,0,.445-.007.666.011A1.363,1.363,0,0,1,36.441,1.5c.021.295.006.591.006.887V18.127" transform="translate(0 -0.002)" fill="#fff"/>
        <path id="Path_12" data-name="Path 12" d="M168.639,8.783c-.854-.446-1.464-.777-2.084-1.087a12.115,12.115,0,0,0-6.117-1.274,7.313,7.313,0,0,0-7.065,6.084,12.481,12.481,0,0,0,.174,6.246,7.164,7.164,0,0,0,6.8,5.38,12.506,12.506,0,0,0,7.116-1.7,2.079,2.079,0,0,1,.961-.454c.271.159.208.4.21.61.01,1.256-.017,2.512.017,3.767a1.1,1.1,0,0,1-.755,1.185,16.711,16.711,0,0,1-4.554,1.351,17.709,17.709,0,0,1-9.989-1.171,12.223,12.223,0,0,1-7.207-10.173,17.12,17.12,0,0,1,.229-5.825,11.945,11.945,0,0,1,8.651-9.474,18.175,18.175,0,0,1,12.48.62,1.518,1.518,0,0,1,1.156,1.714c-.089,1.319-.022,2.649-.022,4.2" transform="translate(-100.404 2.955)" fill="#fff"/>
        <path id="Path_13" data-name="Path 13" d="M247.4,40.817c-.456.087-.588.425-.807.658a7.126,7.126,0,0,1-4.876,2.33,8.391,8.391,0,0,1-4.643-.728,5.845,5.845,0,0,1-3.347-5.113,8.961,8.961,0,0,1,.11-2.318,5.372,5.372,0,0,1,3.314-4.012,14.79,14.79,0,0,1,5.739-1.036c1.218-.02,2.438.007,3.656-.009.954-.012,1.076-.2.868-1.139a2.479,2.479,0,0,0-1.487-1.806,6.459,6.459,0,0,0-2.367-.523,15.762,15.762,0,0,0-7.258,1.186,3.9,3.9,0,0,1-.41.167c-.3.1-.522.035-.524-.325-.009-1.256-.006-2.51,0-3.765,0-.359.228-.523.547-.59.578-.124,1.154-.259,1.735-.357a29.263,29.263,0,0,1,8.924-.372,11.392,11.392,0,0,1,3.4.949,6.842,6.842,0,0,1,3.77,5.751,27.089,27.089,0,0,1,.124,3.76V42.28c0,1.028-.014,1.036-1.061,1.044q-2.05.015-4.1,0c-1.176,0-1.168-.011-1.2-1.142a3.544,3.544,0,0,0-.114-1.371m-4.2-1.139a4.473,4.473,0,0,0,4.311-4.694c.007-.434-.2-.581-.611-.578-1.329.014-2.657,0-3.985.026a3.4,3.4,0,0,0-1.578.475,2.4,2.4,0,0,0-1.2,2.624,2.783,2.783,0,0,0,3.066,2.147" transform="translate(-160.718 -11.791)" fill="#fff"/>
        <path id="Path_14" data-name="Path 14" d="M405.041,43.824a12.739,12.739,0,0,1-5.818-1.132,9.1,9.1,0,0,1-5.128-7.046,12.97,12.97,0,0,1,.1-5.056,9.16,9.16,0,0,1,7.7-7.437,14.981,14.981,0,0,1,6.81.157,9.207,9.207,0,0,1,7.117,8.353,14.293,14.293,0,0,1-.275,4.958,9.13,9.13,0,0,1-7.2,6.886,14.689,14.689,0,0,1-3.3.323M400.525,33.3a10.041,10.041,0,0,0,.5,3.194,4.112,4.112,0,0,0,7.851-.16,9.59,9.59,0,0,0,.372-2.4,8.8,8.8,0,0,0-.6-4.116,3.737,3.737,0,0,0-3.645-2.413,3.783,3.783,0,0,0-3.741,2.267,8.953,8.953,0,0,0-.744,3.623" transform="translate(-270.885 -11.766)" fill="#fff"/>
        <path id="Path_15" data-name="Path 15" d="M321.807,25.952a2.57,2.57,0,0,0,1.04-.811,8.066,8.066,0,0,1,7.809-1.983,5.809,5.809,0,0,1,4.338,4.317,11.339,11.339,0,0,1,.486,3.277q-.01,5.7,0,11.415c0,.147-.014.3,0,.442.035.514-.191.731-.715.725-1.293-.016-2.587,0-3.881,0h-1.22a.526.526,0,0,1-.6-.607v-.776q-.007-5.154-.016-10.306A9.118,9.118,0,0,0,329,30.539a3.048,3.048,0,0,0-4.544-2.547,4.072,4.072,0,0,0-2.134,2.292,8.866,8.866,0,0,0-.6,3.47v8.09c0,.259-.015.518,0,.776.029.519-.2.723-.724.715-1.4-.02-2.809-.006-4.214,0h-.666c-.447.016-.7-.161-.69-.641.006-.222,0-.444,0-.664V24.742c0-.222.014-.444,0-.664-.029-.521.218-.724.729-.72,1.589.012,3.178-.011,4.767.012.765.011.762.045.794.85a8.082,8.082,0,0,0,.092,1.735" transform="translate(-216.92 -11.792)" fill="#fff"/>
        <path id="Path_16" data-name="Path 16" d="M485.982,25.965a3.127,3.127,0,0,0,.967-.808,8.077,8.077,0,0,1,7.592-2.044,5.728,5.728,0,0,1,4.249,3.541,9.885,9.885,0,0,1,.771,3.888q.024,5.875,0,11.749c0,1.032-.015,1.044-1.055,1.051q-2.216.015-4.435,0c-.892-.01-.925-.038-.927-.956-.01-3.288,0-6.577-.01-9.865a10.057,10.057,0,0,0-.185-2.643,2.773,2.773,0,0,0-3.027-2.188,3.85,3.85,0,0,0-3.332,2.231,8.2,8.2,0,0,0-.775,3.768c-.011,2.7,0,5.394,0,8.091,0,.3-.014.591,0,.886.017.454-.166.683-.644.68q-2.495-.015-4.99,0c-.465,0-.674-.217-.657-.677.009-.221,0-.444,0-.664V24.274c.031-.843.059-.89.882-.9,1.22-.014,2.439,0,3.659,0,1.735,0,1.735,0,1.759,1.78a4.545,4.545,0,0,0,.022.553c.006.063.064.124.146.265" transform="translate(-329.765 -11.804)" fill="#fff"/>
        <path id="Path_17" data-name="Path 17" d="M51.132,74.459c0,2.03.007,4.062,0,6.093-.006,1.363-.414,1.787-1.782,1.793-2.807.012-5.615,0-8.428,0-.147,0-.3,0-.442-.009a1.318,1.318,0,0,1-1.4-1.487c-.026-1.551-.01-3.1-.011-4.653V68.553c0-1.409.372-1.772,1.775-1.779q4.214-.017,8.422,0c1.474,0,1.852.382,1.859,1.823.009,1.957,0,3.914,0,5.871" transform="translate(-26.864 -45.91)" fill="#fff"/>
      </g>
    </g>
  </g>
</svg>
